<?xml version="1.0" ?><svg xmlns="http://www.w3.org/2000/svg" id="_레이어_1_사본" data-name="레이어 1 사본" viewBox="0 0 100 100"><defs><style>
      .cls-1 {
        stroke-width: 0px;
      }
    </style></defs><g><path class="cls-1" d="m49.925293,55.9833984h-29.2895508c-.6904297,0-1.25-.5595703-1.25-1.25s.5595703-1.25,1.25-1.25h29.2895508c.6904297,0,1.2504883.5595703,1.2504883,1.25s-.5600586,1.25-1.2504883,1.25Z"/><path class="cls-1" d="m20.2695312,55.9814453c-.1630859,0-.3261719-.03125-.4799805-.0957031-.3549805-.1474609-.6240234-.4501953-.7260742-.8203125l-1.0844727-3.9394531c-.1147461-.4174805-.0058594-.8647461.2885742-1.1816406,9.4443359-10.1865234,28.8496094-7.9228516,31.690918-7.5288086,2.5180664-.359375,22.230957-2.7773438,31.7739258,7.5166016.2939453.3168945.4033203.7641602.2880859,1.1811523l-1.0839844,3.9404297c-.1025391.3720703-.3710938.6767578-.7285156.8232422-.3583984.1484375-.7626953.1210938-1.0976562-.0703125-.0742188-.0419922-8.015625-4.3710938-28.8549805-4.4189453-.0551758.0078125-.1118164.0117188-.1689453.0117188-21.0952148,0-29.1225586,4.3769531-29.2006836,4.4208984-.1904297.1074219-.402832.1611328-.6162109.1611328Zm.309082-4.8310547l.503418,1.8291016c3.168457-1.3037109,11.8212891-4.0424805,28.6567383-4.0795898.0571289-.0083008.1157227-.012207.1748047-.012207,17.0649414,0,25.8139648,2.7675781,29.0043945,4.0800781l.5029297-1.8300781c-8.5302734-8.4370117-25.9042969-6.6538086-28.878418-6.2763672-.1669922.0654297-.3496094.097168-.5405273.0830078l-.1728516-.0117188c-.0893555-.0058594-.1757812-.0214844-.2592773-.0449219-2.6166992-.3422852-20.3447266-2.2885742-28.9912109,6.2626953Z"/><path class="cls-1" d="m21.8535156,49.6757812c-.0185547,0-.0375977-.0004883-.0561523-.0014648-.6894531-.0302734-1.2236328-.612793-1.1938477-1.3022461.0107422-.2456055,1.3115234-24.6015625,22.4760742-28.9580078.6728516-.1425781,1.3369141.2958984,1.4760742.972168s-.2958984,1.3369141-.972168,1.4760742c-19.2412109,3.9609375-20.4404297,25.6958008-20.4824219,26.6191406-.0297852.6704102-.5830078,1.1943359-1.2475586,1.1943359Z"/><path class="cls-1" d="m56.6699219,21.9033203c-.0839844,0-.1699219-.0087891-.2558594-.0268555-1.9990234-.4165039-4.1572266-.6279297-6.4140625-.6279297-2.3051758,0-4.4384766.206543-6.4165039.6137695-.6757812.1391602-1.3374023-.2954102-1.4760742-.972168-.1396484-.6757812.2958984-1.3369141.972168-1.4760742,2.1430664-.4418945,4.4462891-.6655273,6.8457031-.6655273,2.5024414,0,4.831543.2290039,6.9985352.6806641.6757812.140625,1.109375.8027344.96875,1.4785156-.1230469.5898438-.6425781.9956055-1.2226562.9956055Z"/><path class="cls-1" d="m78.1464844,49.6640625c-.6630859,0-1.2158203-.5214844-1.2480469-1.190918-.0439453-.9208984-1.296875-22.5981445-20.484375-26.5966797-.6757812-.140625-1.109375-.8027344-.96875-1.4785156.140625-.675293.796875-1.1118164,1.4785156-.96875,21.0996094,4.3969727,22.4609375,28.6831055,22.4726562,28.9277344.03125.6894531-.5009766,1.2734375-1.1904297,1.3056641-.0195312.0009766-.0400391.0014648-.0595703.0014648Z"/><path class="cls-1" d="m43.331543,43.7719727c-.6904297,0-1.25-.5595703-1.25-1.25v-9.8964844c0-.6904297.5595703-1.25,1.25-1.25h6.3447266c.0664062-.0107422.1347656-.0166016.2041016-.0166016h6.7885742c.6904297,0,1.25.5595703,1.25,1.25v9.8969727c0,.6904297-.5595703,1.25-1.25,1.25s-1.25-.5595703-1.25-1.25v-8.6469727h-5.0952148c-.0664062.0107422-.1347656.0166016-.2041016.0166016h-5.5380859v8.6464844c0,.6904297-.5595703,1.25-1.25,1.25Z"/><path class="cls-1" d="m43.331543,21.2485352c-.6904297,0-1.25-.5595703-1.25-1.25v-6.7578125c0-.6904297.5595703-1.25,1.25-1.25h6.3447266c.0664062-.0107422.1347656-.0166016.2041016-.0166016h6.7885742c.6904297,0,1.25.5595703,1.25,1.25v6.7583008c0,.6904297-.5595703,1.25-1.25,1.25s-1.25-.5595703-1.25-1.25v-5.5083008h-5.0952148c-.0664062.0107422-.1347656.0166016-.2041016.0166016h-5.5380859v5.5078125c0,.6904297-.5595703,1.25-1.25,1.25Z"/><path class="cls-1" d="m79.3642578,55.9716797h-29.2895508c-.6904297,0-1.25-.5595703-1.25-1.25s.5595703-1.25,1.25-1.25h29.2895508c.6904297,0,1.25.5595703,1.25,1.25s-.5595703,1.25-1.25,1.25Z"/></g><path class="cls-1" d="m50,88.0263672c-13.671875,0-24.7944336-12.421875-24.7944336-27.6894531,0-1.9716797.1865234-3.9404297.5546875-5.8515625.1308594-.6777344.7900391-1.1240234,1.4638672-.9912109.6782227.1308594,1.121582.7861328.9912109,1.4638672-.3383789,1.7558594-.5097656,3.5654297-.5097656,5.3789062,0,13.8896484,10.0014648,25.1894531,22.2944336,25.1894531s22.2939453-11.2998047,22.2939453-25.1894531c0-1.8095703-.1708984-3.6152344-.5068359-5.3671875-.1298828-.6777344.3134766-1.3330078.9921875-1.4628906.6738281-.1337891,1.3320312.3144531,1.4628906.9921875.3662109,1.90625.5517578,3.8710938.5517578,5.8378906,0,15.2675781-11.1220703,27.6894531-24.7939453,27.6894531Z"/><path class="cls-1" d="m39.0625,23.1391602c-.6904297,0-1.25-.5595703-1.25-1.25v-6.1826172c0-.6904297.5595703-1.25,1.25-1.25h4.269043c.6904297,0,1.25.5595703,1.25,1.25s-.5595703,1.25-1.25,1.25h-3.019043v4.9326172c0,.6904297-.5595703,1.25-1.25,1.25Z"/><path class="cls-1" d="m60.9375,23.1391602c-.6904297,0-1.25-.5595703-1.25-1.25v-4.9326172h-3.0185547c-.6904297,0-1.25-.5595703-1.25-1.25s.5595703-1.25,1.25-1.25h4.2685547c.6904297,0,1.25.5595703,1.25,1.25v6.1826172c0,.6904297-.5595703,1.25-1.25,1.25Z"/></svg>